 <svg xmlns="http://www.w3.org/2000/svg" width="26" height="26" viewBox="0 0 26 26">
    <path d="M13,0 C20.1797017,0 26,5.82029825 26,13 C26,20.1797017 20.1797017,26 13,26 C5.82029825,26 0,20.1797017 0,13 C0,5.82029825 5.82029825,0 13,0 Z M15.9924973,18.7781515 L9.99320872,18.7781515 L9.99320872,22.1683591 L15.9924973,22.1683591 L15.9924973,18.7781515 Z M13,3.83248173 C11.0249014,3.83248173 10.0058211,4.99702477 9.99320872,7.04527521 L9.99320872,7.04527521 L9.99320872,13.69284 L9.99685,13.8998115 C10.0647928,15.8025897 11.0827733,16.8913395 12.985706,16.8913395 C14.9608046,16.8913395 15.9773624,15.7267965 15.9924973,13.678546 L15.9924973,13.678546 L15.9924973,11.9834422 L14.0913912,11.9834422 L14.0913912,13.8105556 L14.0867571,13.9750837 C14.0405969,14.7638347 13.6523228,15.0490913 13.0445637,15.0490913 C12.4105815,15.0490913 11.9977362,14.7245327 11.9977362,13.8105556 L11.9977362,13.8105556 L11.9977362,6.89476748 L12.0023704,6.72991255 C12.0485306,5.93798383 12.4368047,5.62774885 13.0445637,5.64193778 C13.678546,5.64193778 14.0913912,5.99592523 14.0913912,6.90990233 L14.0913912,6.90990233 L14.0913912,8.28044758 L15.9924973,8.28044758 L15.9924973,7.04527521 L15.9888705,6.83655109 C15.9211931,4.91809617 14.9069918,3.83248173 13,3.83248173 Z"/>
  </svg>