<?xml version="1.0" encoding="UTF-8" standalone="no"?>
<svg
   xmlns:dc="http://purl.org/dc/elements/1.1/"
   xmlns:cc="http://creativecommons.org/ns#"
   xmlns:rdf="http://www.w3.org/1999/02/22-rdf-syntax-ns#"
   xmlns:svg="http://www.w3.org/2000/svg"
   xmlns="http://www.w3.org/2000/svg"
   width="300"
   height="300"
   viewBox="0 0 300 300"
   id="svg8237"
   version="1.1">
  <defs
     id="defs8239" />
  <metadata
     id="metadata8242">
    <rdf:RDF>
      <cc:Work
         rdf:about="">
        <dc:format>image/svg+xml</dc:format>
        <dc:type
           rdf:resource="http://purl.org/dc/dcmitype/StillImage" />
        <dc:title></dc:title>
      </cc:Work>
    </rdf:RDF>
  </metadata>
  <g
     id="layer1"
     transform="translate(0,-752.36216)" />
  <g
     style="display:inline"
     id="layer2">
    <path
       id="path4736"
       d="m 248.50721,204.28241 c -7.54364,-7.11851 -18.53762,-9.20166 -28.16248,-5.33618 L 95.604019,80.930321 C 98.026604,71.689647 95.584556,62.327879 89.161323,56.231748 83.194812,50.597906 74.58081,48.505419 66.042194,50.61493 c 1.776344,1.178432 3.461748,2.367258 4.051161,2.754593 1.29847,0.853327 8.166122,4.932954 8.863977,6.321187 0.697849,1.38824 -0.126858,9.332151 -0.216607,10.883313 -0.08978,1.551192 -0.186665,9.537196 -1.039984,10.83567 -0.853318,1.298474 -8.145684,4.556585 -9.533916,5.254436 -1.388232,0.697852 -8.352707,4.607001 -9.903881,4.517242 -1.551174,-0.08976 -8.018833,-4.775557 -9.31731,-5.628877 -0.752758,-0.494684 -3.366857,-2.071607 -5.575865,-3.581378 0.587488,5.851003 3.129008,11.139476 7.222054,15.027903 8.232964,7.783621 21.178694,8.583171 31.717729,1.959164 L 205.06397,215.09489 c -3.32599,9.82459 -0.63632,20.68646 6.88986,27.82379 10.66905,10.09408 27.50096,9.62781 37.59482,-1.04145 10.09409,-10.66905 9.62782,-27.50095 -1.04144,-37.59482 z m -7.31819,7.7352 c 0.44836,0.42419 0.73921,3.66558 1.06251,4.19135 0.32328,0.52578 3.08705,2.24844 3.26324,2.83998 0.17621,0.59153 -1.19358,3.5452 -1.17649,4.16218 0.0171,0.61698 1.54687,3.48895 1.40369,4.08933 -0.14317,0.60038 -2.80457,2.47333 -3.09826,3.01619 -0.29369,0.54287 -0.40465,3.79539 -0.82883,4.24375 -0.42419,0.44835 -3.66558,0.73921 -4.19136,1.0625 -0.52576,0.32329 -2.24985,3.08572 -2.84138,3.26191 -0.59154,0.1762 -3.54379,-1.19224 -4.16077,-1.17515 -0.61698,0.0171 -3.48895,1.54687 -4.08933,1.40369 -0.60038,-0.14317 -2.47475,-2.80591 -3.01761,-3.0996 -0.54287,-0.29369 -3.79539,-0.40465 -4.24375,-0.82884 -0.44836,-0.42419 -0.73921,-3.66558 -1.0625,-4.19134 -0.32329,-0.52578 -3.0843,-2.24852 -3.26049,-2.84005 -0.1762,-0.59154 1.19224,-3.54379 1.17515,-4.16077 -0.0171,-0.61698 -1.5483,-3.4903 -1.40511,-4.09067 0.14317,-0.60038 2.80734,-2.47341 3.10102,-3.01628 0.29369,-0.54287 0.40465,-3.79538 0.82884,-4.24374 0.42418,-0.44835 3.66556,-0.73921 4.19134,-1.0625 0.52578,-0.32329 2.24711,-3.08564 2.83864,-3.26183 0.59153,-0.1762 3.5452,1.19358 4.16218,1.17649 0.61698,-0.0171 3.49029,-1.54829 4.09067,-1.40511 0.60038,0.14317 2.47199,2.80599 3.01486,3.09968 0.54286,0.29369 3.79538,0.40465 4.24374,0.82883 z"
       style="fill:#ffffff;fill-opacity:1;stroke:#000000;stroke-width:1.79885209;stroke-linecap:round;stroke-miterlimit:4;stroke-dasharray:none;stroke-opacity:1" />
  </g>
  <g
     style="display:inline"
     id="layer3">
    <path
       id="rect8710-6"
       d="m 250.85332,56.284737 -9.17942,14.413174 -7.23812,1.290553 -79.70355,80.417366 4.96809,4.96809 c 0,0 4.28284,4.99664 1.78452,7.49496 -2.49833,2.49832 -4.63975,5.35353 -8.20878,6.06735 -3.56903,0.71381 -7.85186,5.71044 -7.85186,5.71044 l -57.632687,57.63269 c -3.569019,3.56903 -2.636062,8.07935 -4.639727,10.35018 -5.353535,6.06735 -6.522712,9.18103 -12.134702,3.56903 L 51.801421,228.98292 c -5.611991,-5.61198 -2.498311,-6.78115 3.569036,-12.13469 2.270829,-2.00368 6.781151,-1.07071 10.350181,-4.63974 L 123.35332,154.5758 c 0,0 4.99663,-4.28283 5.71044,-7.85186 0.71382,-3.56902 3.56903,-5.71044 6.06735,-8.20877 2.49833,-2.49832 7.49497,1.78452 7.49497,1.78452 l 4.96808,4.96809 80.41738,-79.703562 1.29056,-7.238124 14.41316,-9.179414 z"
       style="display:inline;fill:#ffffff;fill-opacity:1;stroke:#000000;stroke-width:1.94503427;stroke-linecap:round;stroke-miterlimit:4;stroke-dasharray:none;stroke-opacity:1" />
  </g>
</svg>
