<?xml version="1.0" encoding="utf-8"?>
<!-- Generator: Adobe Illustrator 20.1.0, SVG Export Plug-In . SVG Version: 6.00 Build 0)  -->
<svg version="1.1" id="Ebene_1" xmlns="http://www.w3.org/2000/svg" xmlns:xlink="http://www.w3.org/1999/xlink" x="0px" y="0px"
	 viewBox="0 0 205.3 205.3" style="enable-background:new 0 0 205.3 205.3;" xml:space="preserve">
<style type="text/css">
	.st0{fill:#9D9D9C;}
</style>
<g>
	<g>
		<rect x="33.3" y="86" class="st0" width="86.5" height="2"/>
	</g>
	<g>
		<rect x="33.3" y="118" class="st0" width="86.5" height="2"/>
	</g>
	<g>
		<g>
			<g>
				<path class="st0" d="M45.4,72.1c-2.8,0-5.1-2.6-5.1-5.9c0-3.2,2.3-5.9,5.1-5.9s5.1,2.6,5.1,5.9C50.4,69.5,48.1,72.1,45.4,72.1z
					 M45.4,62.4c-1.7,0-3.1,1.7-3.1,3.9s1.4,3.9,3.1,3.9s3.1-1.7,3.1-3.9S47,62.4,45.4,62.4z"/>
			</g>
		</g>
		<g>
			<path class="st0" d="M44.5,75.1L44.5,75.1c0.4,0,0.6,0,0.8,0h0.1h0.1c0.1,0,0.4,0,0.8,0c2.8,0,4.4,0.4,4.8,0.7
				c0.4,0.5,0.7,2.6,0.9,5.1h-6.5h-6.4c0.1-2.5,0.5-4.5,0.9-5.1C40.1,75.5,41.7,75.1,44.5,75.1 M44.5,73.1c-1.7,0-5.1,0.1-6.2,1.3
				c-1.4,1.4-1.5,7.3-1.5,7.9v0.5h8.5l0,0h8.5v-0.5c0-0.7-0.1-6.5-1.5-7.9c-1.1-1.1-4.5-1.3-6.2-1.3c-0.4,0-0.7,0-0.8,0
				S44.9,73.1,44.5,73.1L44.5,73.1z"/>
		</g>
	</g>
	<g>
		<g>
			<g>
				<path class="st0" d="M45.4,103.6c-2.8,0-5.1-2.6-5.1-5.9s2.3-5.9,5.1-5.9s5.1,2.6,5.1,5.9S48.1,103.6,45.4,103.6z M45.4,93.9
					c-1.7,0-3.1,1.7-3.1,3.9s1.4,3.9,3.1,3.9s3.1-1.7,3.1-3.9S47,93.9,45.4,93.9z"/>
			</g>
		</g>
		<g>
			<path class="st0" d="M44.5,106.6L44.5,106.6c0.4,0,0.6,0,0.8,0h0.1h0.1c0.1,0,0.4,0,0.8,0c2.8,0,4.4,0.4,4.8,0.7
				c0.4,0.5,0.7,2.6,0.9,5.1h-6.5h-6.4c0.1-2.5,0.5-4.5,0.9-5.1C40.1,107,41.7,106.6,44.5,106.6 M44.5,104.6c-1.7,0-5.1,0.1-6.2,1.3
				c-1.4,1.4-1.5,7.3-1.5,7.9v0.5h8.5l0,0h8.5v-0.5c0-0.7-0.1-6.5-1.5-7.9c-1.1-1.1-4.5-1.3-6.2-1.3c-0.4,0-0.7,0-0.8,0
				S44.9,104.6,44.5,104.6L44.5,104.6z"/>
		</g>
	</g>
	<g>
		<g>
			<g>
				<path class="st0" d="M45.4,135.1c-2.8,0-5.1-2.6-5.1-5.9c0-3.2,2.3-5.9,5.1-5.9s5.1,2.6,5.1,5.9
					C50.4,132.5,48.1,135.1,45.4,135.1z M45.4,125.4c-1.7,0-3.1,1.7-3.1,3.9c0,2.1,1.4,3.9,3.1,3.9s3.1-1.7,3.1-3.9
					C48.4,127.1,47,125.4,45.4,125.4z"/>
			</g>
		</g>
		<g>
			<path class="st0" d="M44.5,138.1L44.5,138.1c0.4,0,0.6,0,0.8,0h0.1h0.1c0.1,0,0.4,0,0.8,0c2.8,0,4.4,0.4,4.8,0.7
				c0.4,0.5,0.7,2.6,0.9,5.1h-6.5h-6.4c0.1-2.5,0.5-4.5,0.9-5.1C40.1,138.5,41.7,138.1,44.5,138.1 M44.5,136.1
				c-1.7,0-5.1,0.1-6.2,1.3c-1.4,1.4-1.5,7.3-1.5,7.9v0.5h8.5l0,0h8.5v-0.5c0-0.7-0.1-6.5-1.5-7.9c-1.1-1.1-4.5-1.3-6.2-1.3
				c-0.4,0-0.7,0-0.8,0S44.9,136.1,44.5,136.1L44.5,136.1z"/>
		</g>
	</g>
	<path class="st0" d="M140.6,105.6V78.4c0.9-0.3,1.5-1.2,1.5-2.2V74c0-0.1,0-0.3,0-0.4l-1.1-7.4c-0.2-1.2-1.2-2-2.4-2h-2.4
		c-1.2,0-2.2,0.9-2.4,2l-1.1,7.3c0,0.1,0,0.3,0,0.4V76c0,1,0.6,1.9,1.5,2.2v27.2c-2,0.4-3.5,2.2-3.5,4.3v27.7c0,2.4,2,4.4,4.4,4.4
		h4.5c2.4,0,4.4-2,4.4-4.4v-27.7C144.1,107.8,142.6,106,140.6,105.6z M134.8,74l1.1-7.4c0-0.2,0.2-0.3,0.4-0.3h2.4
		c0.2,0,0.3,0.1,0.4,0.3l1.1,7.4v2.1c0,0.2-0.2,0.4-0.4,0.4h-1.2v2l0,0v27h-2.3v-28l0,0v-1h-1.2c-0.2,0-0.4-0.2-0.4-0.4L134.8,74z
		 M142.1,137.6c0,1.3-1.1,2.4-2.4,2.4h-4.5c-1.3,0-2.4-1.1-2.4-2.4v-27.7c0-1.3,1-2.3,2.2-2.4h4.9c1.2,0.1,2.2,1.1,2.2,2.4V137.6z"
		/>
	<g>
		<g>
			<path class="st0" d="M159.5,137.3l-2-2.1l-2.8-0.5l0.1-2.9l-1.6-2.4l2.1-2l0.5-2.8l2.9,0.1l2.4-1.6l2,2.1l2.8,0.5l-0.1,2.9
				l1.6,2.4l-2.1,2l-0.5,2.8l-2.9-0.1L159.5,137.3z M156.5,133.2l1.9,0.4l1.3,1.4l1.6-1.1h1.9l0.4-1.9l1.4-1.3l-1.1-1.6v-1.9
				l-1.9-0.4l-1.3-1.4l-1.6,1.1h-1.9l-0.4,1.9l-1.4,1.3l1.1,1.6V133.2z"/>
		</g>
	</g>
	<path class="st0" d="M166.8,120.5V82.2c3.2-2.7,4.7-7,3.8-11.1c-0.5-2.3-1.7-4.4-3.5-5.9l-0.2-0.2l-2.1,0.5l0.3,7l-4.5,5l-6.5-2.7
		l-2.9-6.2l-2,0.5l-0.1,0.3c-0.9,2.2-1.1,4.6-0.6,6.9c0.7,3,2.5,5.5,5.1,7.1v37.4c-3.2,2.2-5.1,5.8-5.1,9.7
		c0,6.5,5.3,11.8,11.8,11.8s11.8-5.3,11.8-11.8C172,126.3,170.1,122.7,166.8,120.5z M165.9,121L165.9,121L165.9,121L165.9,121
		L165.9,121z M154.6,121L154.6,121L154.6,121L154.6,121L154.6,121z M160.2,140c-5.4,0-9.8-4.4-9.8-9.8c0-3.2,1.6-6.1,4.2-8
		c0.3-0.2,0.6-0.4,1-0.6v-1.1l0,0V81.8l-0.2-0.1l-0.4-0.2c-2.3-1.3-3.9-3.5-4.5-6c-0.3-1.2-0.3-2.5-0.1-3.7l2.1,4.5l8.7,3.5l6.1-6.7
		l-0.2-4.9c0.7,1,1.2,2.1,1.4,3.2c0.5,2.4,0.1,4.9-1.2,6.9c-0.6,0.9-1.3,1.7-2.2,2.4l-0.4,0.3l0.1,39.9l0,0v0.6
		c0.3,0.2,0.6,0.4,0.9,0.6c2.6,1.8,4.2,4.8,4.2,8C170,135.6,165.6,140,160.2,140z"/>
	<rect x="64" y="132.1" class="st0" width="55.7" height="6"/>
	<rect x="64" y="100.1" class="st0" width="55.7" height="6"/>
	<rect x="64" y="69.1" class="st0" width="55.7" height="6"/>
</g>
</svg>
