<svg id="Ebene_1" data-name="Ebene 1" xmlns="http://www.w3.org/2000/svg" viewBox="0 0 205.26 205.26"><defs><style>.cls-1,.cls-3{fill:none;}.cls-1{stroke:#9d9d9c;stroke-miterlimit:10;}.cls-2{fill:#9d9d9c;}.cls-4{fill:gray;}</style></defs><title>Zeichenfläche 3</title><line class="cls-1" x1="33.76" y1="86.54" x2="120.22" y2="86.54"/><line class="cls-1" x1="33.76" y1="118.55" x2="120.22" y2="118.55"/><path class="cls-2" d="M45.86,103.52c-2.81,0-5.09-2.65-5.09-5.9s2.28-5.9,5.09-5.9S51,94.37,51,97.62,48.67,103.52,45.86,103.52Zm0-10.76c-2.24,0-4.05,2.18-4.05,4.86s1.82,4.86,4.05,4.86,4.05-2.18,4.05-4.86S48.09,92.76,45.86,92.76Z"/><path class="cls-2" d="M54.35,112.68c0-.68-.1-5.53-1.48-6.95s-6.34-1.26-7-1.24-5.68-.14-7,1.24-1.48,6.27-1.48,6.95v.52h17Zm-8.49-.51h-7.6c.06-2.41.41-4.89,1.17-5.66s4.36-1,6.41-1h0c2-.06,5.58.13,6.4,1s1.11,3.25,1.17,5.66Z"/><path class="cls-2" d="M45.86,71.65c-2.81,0-5.09-2.65-5.09-5.9s2.28-5.9,5.09-5.9S51,62.5,51,65.76,48.67,71.65,45.86,71.65Zm0-10.76c-2.24,0-4.05,2.18-4.05,4.86s1.82,4.86,4.05,4.86,4.05-2.18,4.05-4.86S48.09,60.9,45.86,60.9Z"/><path class="cls-2" d="M54.35,80.81c0-.68-.1-5.53-1.48-6.95s-6.34-1.26-7-1.24-5.68-.14-7,1.24-1.48,6.27-1.48,6.95v.52h17Zm-8.49-.51h-7.6c.06-2.41.41-4.89,1.17-5.66s4.36-1,6.41-1h0c2-.06,5.58.13,6.4,1s1.11,3.25,1.17,5.66Z"/><path class="cls-2" d="M45.86,135.72c-2.81,0-5.09-2.65-5.09-5.9s2.28-5.9,5.09-5.9,5.09,2.65,5.09,5.9S48.67,135.72,45.86,135.72Zm0-10.76c-2.24,0-4.05,2.18-4.05,4.86s1.82,4.86,4.05,4.86,4.05-2.18,4.05-4.86S48.09,125,45.86,125Z"/><path class="cls-2" d="M54.35,144.88c0-.68-.1-5.53-1.48-6.95s-6.34-1.26-7-1.24-5.68-.14-7,1.24-1.48,6.27-1.48,6.95v.52h17Zm-8.49-.51h-7.6c.06-2.41.41-4.89,1.17-5.66s4.36-1,6.41-1h0c2-.06,5.58.13,6.4,1s1.11,3.25,1.17,5.66Z"/><path class="cls-2" d="M140.19,140.47h-4.5a3.4,3.4,0,0,1-3.4-3.4V109.4a3.4,3.4,0,0,1,3.4-3.4h4.5a3.4,3.4,0,0,1,3.4,3.4v27.67A3.4,3.4,0,0,1,140.19,140.47ZM135.69,107a2.38,2.38,0,0,0-2.38,2.38v27.67a2.38,2.38,0,0,0,2.38,2.38h4.5a2.38,2.38,0,0,0,2.38-2.38V109.4a2.38,2.38,0,0,0-2.38-2.38Z"/><rect class="cls-3" x="136.82" y="77.04" width="2.24" height="28.96"/><polygon class="cls-4" points="139.06 106 136.82 106 136.82 77.04 135.8 77.04 135.8 107.02 140.08 107.02 140.08 77.04 139.06 77.04 139.06 106"/><path class="cls-4" d="M141.6,73.33,140.5,66a1.37,1.37,0,0,0-1.36-1.17h-2.39A1.37,1.37,0,0,0,135.38,66l-1.1,7.36a1.24,1.24,0,0,0,0,.21v2.13A1.38,1.38,0,0,0,135.64,77h1.18V76h-1.18a.36.36,0,0,1-.36-.36V73.48l1.1-7.37a.36.36,0,0,1,.35-.3h2.39a.36.36,0,0,1,.35.3l1.11,7.42v2.13a.36.36,0,0,1-.36.36h-1.18v1h1.18a1.38,1.38,0,0,0,1.38-1.38V73.53A1.23,1.23,0,0,0,141.6,73.33Z"/><path class="cls-2" d="M160,137.37l-2.15-2.24-3-.57.06-3.1-1.75-2.56,2.24-2.15.57-3,3.1.06,2.56-1.75,2.15,2.24,3,.57-.06,3.1,1.75,2.56-2.24,2.15-.57,3-3.1-.06Zm-4.16-3.65,2.52.47,1.77,1.85,2.11-1.45,2.56.05.47-2.52,1.85-1.77-1.45-2.11.05-2.56-2.52-.47-1.77-1.85-2.11,1.45-2.56-.05-.47,2.52-1.85,1.77,1.45,2.11Z"/><path class="cls-3" d="M165.37,120V82.44s0,0,0-.06a10.68,10.68,0,0,1-9.25.66v37a10.63,10.63,0,0,1,9.26,0Z"/><path class="cls-4" d="M165.37,82.44V120a10.75,10.75,0,0,1,1,.56V82.44a3.4,3.4,0,0,0-.07-.68,10.67,10.67,0,0,1-1,.62S165.37,82.42,165.37,82.44Z"/><path class="cls-4" d="M156.11,83a10.84,10.84,0,0,1-1-.46v38a10.74,10.74,0,0,1,1-.56Z"/><path class="cls-4" d="M155.24,81.5a9.7,9.7,0,0,1-4.37-11.79l2.62,5.67,8.1,3.3,5.66-6.25L167,66.18a9.73,9.73,0,0,1-1,14.59,3.35,3.35,0,0,1,.39,1A10.75,10.75,0,0,0,167.23,65l-1.33.3.31,6.74-4.9,5.41-7.07-2.88-2.79-6-1.34.3a10.72,10.72,0,0,0,5,13.73v-.14A3.35,3.35,0,0,1,155.24,81.5Z"/><path class="cls-4" d="M156.11,82.44a2.38,2.38,0,0,1,0-.48,9.79,9.79,0,0,1-.92-.46,3.35,3.35,0,0,0-.15.93v.14a10.84,10.84,0,0,0,1,.46Z"/><path class="cls-4" d="M165.09,81.35a2.35,2.35,0,0,1,.27,1,10.67,10.67,0,0,0,1-.62,3.35,3.35,0,0,0-.39-1A9.61,9.61,0,0,1,165.09,81.35Z"/><path class="cls-4" d="M166.38,120.55v1.22a9.75,9.75,0,1,1-11.29,0v-1.22a10.77,10.77,0,1,0,11.29,0Z"/><path class="cls-4" d="M165.37,121.12a9.75,9.75,0,0,1,1,.65v-1.22a10.75,10.75,0,0,0-1-.56Z"/><path class="cls-4" d="M156.11,121.12V120a10.74,10.74,0,0,0-1,.56v1.22A9.76,9.76,0,0,1,156.11,121.12Z"/><circle class="cls-2" cx="65.47" cy="71.62" r="1.25"/><circle class="cls-2" cx="70.3" cy="71.62" r="1.25"/><circle class="cls-2" cx="75.13" cy="71.62" r="1.25"/><circle class="cls-2" cx="79.97" cy="71.62" r="1.25"/><circle class="cls-2" cx="84.8" cy="71.62" r="1.25"/><circle class="cls-2" cx="89.63" cy="71.62" r="1.25"/><circle class="cls-2" cx="94.47" cy="71.62" r="1.25"/><circle class="cls-2" cx="99.3" cy="71.62" r="1.25"/><circle class="cls-2" cx="104.13" cy="71.62" r="1.25"/><circle class="cls-2" cx="108.97" cy="71.62" r="1.25"/><circle class="cls-2" cx="113.8" cy="71.62" r="1.25"/><circle class="cls-2" cx="118.63" cy="71.62" r="1.25"/><circle class="cls-2" cx="65.47" cy="102.65" r="1.25"/><circle class="cls-2" cx="70.3" cy="102.65" r="1.25"/><circle class="cls-2" cx="75.13" cy="102.65" r="1.25"/><circle class="cls-2" cx="79.97" cy="102.65" r="1.25"/><circle class="cls-2" cx="84.8" cy="102.65" r="1.25"/><circle class="cls-2" cx="89.63" cy="102.65" r="1.25"/><circle class="cls-2" cx="94.47" cy="102.65" r="1.25"/><circle class="cls-2" cx="99.3" cy="102.65" r="1.25"/><circle class="cls-2" cx="104.13" cy="102.65" r="1.25"/><circle class="cls-2" cx="108.97" cy="102.65" r="1.25"/><circle class="cls-2" cx="113.8" cy="102.65" r="1.25"/><circle class="cls-2" cx="118.63" cy="102.65" r="1.25"/><circle class="cls-2" cx="65.47" cy="134.62" r="1.25"/><circle class="cls-2" cx="70.3" cy="134.62" r="1.25"/><circle class="cls-2" cx="75.13" cy="134.62" r="1.25"/><circle class="cls-2" cx="79.97" cy="134.62" r="1.25"/><circle class="cls-2" cx="84.8" cy="134.62" r="1.25"/><circle class="cls-2" cx="89.63" cy="134.62" r="1.25"/><circle class="cls-2" cx="94.47" cy="134.62" r="1.25"/><circle class="cls-2" cx="99.3" cy="134.62" r="1.25"/><circle class="cls-2" cx="104.13" cy="134.62" r="1.25"/><circle class="cls-2" cx="108.97" cy="134.62" r="1.25"/><circle class="cls-2" cx="113.8" cy="134.62" r="1.25"/><circle class="cls-2" cx="118.63" cy="134.62" r="1.25"/></svg>