<?xml version="1.0" encoding="UTF-8" standalone="no"?>
<svg
   xmlns:dc="http://purl.org/dc/elements/1.1/"
   xmlns:cc="http://creativecommons.org/ns#"
   xmlns:rdf="http://www.w3.org/1999/02/22-rdf-syntax-ns#"
   xmlns:svg="http://www.w3.org/2000/svg"
   xmlns="http://www.w3.org/2000/svg"
   xml:space="preserve"
   id="Ebene_1"
   viewBox="0 0 180 180"
   height="180"
   width="180"
   version="1.1"><defs
     id="defs250" /><path
     style="fill:#b5152f;fill-opacity:0.94117647;stroke:none"
     id="path246"
     d="m 175.74443,54.15682 c -8.17168,19.700455 -30.72284,29.0502 -50.37214,20.899511 -19.6506,-8.145444 -28.962309,-30.700543 -20.79194,-50.390502 8.17168,-19.705703 30.7281,-29.044954 50.37739,-20.899511 19.65454,8.150691 28.96231,30.695295 20.78669,50.390502 z m -4.95102,29.56315 0.21646,-0.0892 4.03008,15.93405 -17.51618,7.28748 -8.39863,-14.10136 0.64675,-0.26894 c -6.20911,1.14527 -12.65567,1.23448 -19.07206,0.10233 l -8.40389,14.12498 -17.51093,-7.21795 4.03533,-15.9498 0.3752,0.15349 C 103.92835,80.00342 99.47059,75.445958 95.915404,70.317831 l 0.0223,0.04985 -15.923562,4.072066 -7.252055,-17.521428 14.106612,-8.441927 0.262375,0.633636 c -1.122966,-6.211737 -1.199055,-12.6583 -0.05116,-19.074689 L 72.960184,21.652446 80.230605,4.094286 96.137112,8.1165 95.942954,8.588776 C 98.148218,5.43765 100.65522,2.567263 103.40622,-8e-5 l -91.653116,0 C 5.269809,-8e-5 0,5.276289 0,11.774015 l 0,76.813015 10.809865,7.81485 -0.388316,0.40143 C 15.7622,93.25993 21.609235,90.80541 27.653052,89.3899 l -0.11151,0.004 2.113434,-16.016702 18.643082,-0.296484 2.541106,15.932746 -0.628389,0.0105 c 6.073989,1.20955 11.977435,3.47779 17.411229,6.82701 l 12.789488,-9.85482 13.374584,12.98889 -9.486181,13.07942 -0.345024,-0.33847 c 3.500088,5.29867 5.92706,11.09848 7.324209,17.09113 l 0,-0.0446 16.02457,2.07539 0.25845,18.63652 -15.952427,2.57259 -0.0079,-0.59428 c -1.227916,6.06612 -3.511894,11.96694 -6.868987,17.3968 L 93.313773,180 l 74.736467,0 c 6.49511,0 11.74524,-5.27243 11.74524,-11.77934 l 0,-92.308986 c -2.72084,2.958286 -5.75258,5.555796 -9.0021,7.808296 z M 66.788962,167.3836 C 52.162847,182.40065 28.177803,182.74437 13.18961,168.16023 -1.79596,153.58134 -2.105563,129.60417 12.513993,114.58712 27.134861,99.57006 51.125153,99.2316 66.113346,113.80524 c 14.988193,14.58413 15.29386,38.56131 0.675616,53.57836 z" /><metadata
     id="metadata4637"><rdf:RDF><cc:Work
         rdf:about=""><dc:title></dc:title></cc:Work></rdf:RDF></metadata></svg>