<?xml version="1.0" encoding="utf-8"?>
<!-- Generator: Adobe Illustrator 20.1.0, SVG Export Plug-In . SVG Version: 6.00 Build 0)  -->
<svg version="1.1" id="Ebene_1" xmlns="http://www.w3.org/2000/svg" xmlns:xlink="http://www.w3.org/1999/xlink" x="0px" y="0px"
	 viewBox="0 0 205.3 205.3" style="enable-background:new 0 0 205.3 205.3;" xml:space="preserve">
<style type="text/css">
	.st0{fill:#9D9D9C;}
</style>
<g>
	<path class="st0" d="M137.4,84.9V71.2h-16.5v-6.1c0-3.1-2.5-5.7-5.7-5.7H90.8c-3.1,0-5.7,2.5-5.7,5.7v14.1c0,3.1,2.5,5.7,5.7,5.7
		h24.4c3.1,0,5.7-2.5,5.7-5.7v-6.1h14.5v11.8h-1.5l2.5,4.3l2.5-4.3H137.4z M118.9,79.2c0,2-1.6,3.7-3.7,3.7H90.8
		c-2,0-3.7-1.6-3.7-3.7V65.1c0-2,1.6-3.7,3.7-3.7h24.4c2,0,3.7,1.6,3.7,3.7V79.2z"/>
	<path class="st0" d="M136.4,116l-2.5,4.3h1.5v11.8h-14.5V126c0-3.1-2.5-5.7-5.7-5.7H90.8c-3.1,0-5.7,2.5-5.7,5.7v14.1
		c0,3.1,2.5,5.7,5.7,5.7h24.4c3.1,0,5.7-2.5,5.7-5.7v-6.1h16.5v-13.8h1.5L136.4,116z M118.9,140.2c0,2-1.6,3.7-3.7,3.7H90.8
		c-2,0-3.7-1.6-3.7-3.7V126c0-2,1.6-3.7,3.7-3.7h24.4c2,0,3.7,1.6,3.7,3.7V140.2z"/>
	<g>
		<path class="st0" d="M85.3,72L81,69.5V71H66.7v19.2l-12.1,12.1l-3.9-2.3v1.5h-3.7c-0.5-6.6-6-11.8-12.7-11.8
			c-7,0-12.8,5.7-12.8,12.8s5.7,12.8,12.8,12.8c6.7,0,12.2-5.2,12.7-11.8h3.7v1.5l3.8-2.2l12.2,12.2v19.2H81v1.5l4.3-2.5l-4.3-2.5
			v1.5H68.7v-17.2h0L81,102.5L68.6,90.2h0V73H81v1.5L85.3,72z M34.2,113.2c-5.9,0-10.8-4.8-10.8-10.8s4.8-10.8,10.8-10.8
			S45,96.5,45,102.5S40.1,113.2,34.2,113.2z M78.2,102.5l-10.5,10.5l-10.5-10.5L67.6,92L78.2,102.5z"/>
		<path class="st0" d="M170.6,89.2c-7.2,0-13.2,5.8-13.3,13.1l-3.9-2.3v1.5h-4.7v0l-12.3-12.3l-13.4,13.4l13.4,13.4l12.4-12.4h4.5
			v1.5l3.9-2.3c0.1,7.2,6,13.1,13.3,13.1c7.3,0,13.3-6,13.3-13.3S177.9,89.2,170.6,89.2z M136.4,113.1l-10.5-10.5L136.4,92
			l10.5,10.5L136.4,113.1z M170.6,112.7c-5.7,0-10.3-4.6-10.3-10.3s4.6-10.3,10.3-10.3s10.3,4.6,10.3,10.3S176.2,112.7,170.6,112.7z
			"/>
	</g>
</g>
</svg>
