<svg id="Ebene_1" data-name="Ebene 1" xmlns="http://www.w3.org/2000/svg" viewBox="0 0 205.26 205.26"><defs><style>.cls-1,.cls-2{fill:#fff;}.cls-1,.cls-4{stroke:#9d9d9c;stroke-miterlimit:10;}.cls-3{fill:#9d9d9c;}.cls-4{fill:none;}</style></defs><title>Zeichenfläche 1</title><circle class="cls-1" cx="35.13" cy="102.51" r="11.78"/><path class="cls-2" d="M170.14,113.15a10.64,10.64,0,1,1,10.64-10.64A10.66,10.66,0,0,1,170.14,113.15Z"/><path class="cls-3" d="M170.14,93a9.51,9.51,0,1,1-9.51,9.51A9.52,9.52,0,0,1,170.14,93m0-2.28a11.78,11.78,0,1,0,11.78,11.78,11.78,11.78,0,0,0-11.78-11.78Z"/><rect class="cls-2" x="59.79" y="93.74" width="17.54" height="17.54" transform="translate(-52.4 78.51) rotate(-45)"/><path class="cls-3" d="M68.57,90.64l11.87,11.87L68.57,114.37,56.7,102.51,68.57,90.64m0-1.07L55.62,102.51l12.94,12.94,12.94-12.94L68.57,89.57Z"/><rect class="cls-2" x="128.59" y="93.74" width="17.54" height="17.54" transform="translate(-32.25 127.15) rotate(-45)"/><path class="cls-3" d="M137.36,90.64l11.87,11.87-11.87,11.87-11.87-11.87,11.87-11.87m0-1.07-12.94,12.94,12.94,12.94,12.94-12.94L137.36,89.57Z"/><rect class="cls-2" x="86.55" y="59.84" width="34.85" height="24.54" rx="4.74" ry="4.74"/><path class="cls-3" d="M116.66,60.29a4.29,4.29,0,0,1,4.28,4.28V79.63a4.29,4.29,0,0,1-4.28,4.28H91.29A4.29,4.29,0,0,1,87,79.63V64.58a4.29,4.29,0,0,1,4.28-4.28h25.37m0-.92H91.29a5.2,5.2,0,0,0-5.2,5.2V79.63a5.2,5.2,0,0,0,5.2,5.2h25.37a5.2,5.2,0,0,0,5.2-5.2V64.58a5.2,5.2,0,0,0-5.2-5.2Z"/><path class="cls-3" d="M116.66,121.35a4.29,4.29,0,0,1,4.28,4.28v15.06a4.29,4.29,0,0,1-4.28,4.28H91.29A4.29,4.29,0,0,1,87,140.69V125.63a4.29,4.29,0,0,1,4.28-4.28h25.37m0-.92H91.29a5.2,5.2,0,0,0-5.2,5.2v15.06a5.2,5.2,0,0,0,5.2,5.2h25.37a5.2,5.2,0,0,0,5.2-5.2V125.63a5.2,5.2,0,0,0-5.2-5.2Z"/><line class="cls-4" x1="46.91" y1="102.51" x2="52.9" y2="102.51"/><polygon class="cls-3" points="52.35 104.4 55.62 102.51 52.35 100.61 52.35 104.4"/><line class="cls-4" x1="149.64" y1="102.51" x2="155.63" y2="102.51"/><polygon class="cls-3" points="155.07 104.4 158.35 102.51 155.07 100.61 155.07 104.4"/><polyline class="cls-4" points="83.25 72.02 68.59 72.02 68.59 90.23"/><polygon class="cls-3" points="82.69 70.13 85.97 72.02 82.69 73.92 82.69 70.13"/><polyline class="cls-4" points="137.36 87.31 137.36 72.21 121 72.21"/><polygon class="cls-3" points="139.25 86.76 137.36 90.03 135.47 86.76 139.25 86.76"/><polyline class="cls-4" points="137.36 118.06 137.36 133.16 121 133.16"/><polygon class="cls-3" points="135.47 118.61 137.36 115.33 139.25 118.61 135.47 118.61"/><polyline class="cls-4" points="83.25 133.16 68.59 133.16 68.59 114.94"/><polygon class="cls-3" points="82.69 131.26 85.97 133.16 82.69 135.05 82.69 131.26"/><polygon class="cls-3" points="72.22 97.61 70.71 97.61 68.57 101.33 66.42 97.61 64.91 97.61 64.87 97.63 67.79 102.68 65.06 107.4 66.62 107.4 68.57 104.03 70.51 107.4 72.07 107.4 69.34 102.68 72.26 97.63 72.22 97.61"/><polygon class="cls-3" points="141.02 97.61 139.5 97.61 137.36 101.33 135.22 97.61 133.7 97.61 133.67 97.63 136.58 102.68 133.85 107.4 135.41 107.4 137.36 104.03 139.31 107.4 140.87 107.4 138.14 102.68 141.05 97.63 141.02 97.61"/></svg>