<?xml version="1.0" encoding="utf-8"?>
<!-- Generator: Adobe Illustrator 20.1.0, SVG Export Plug-In . SVG Version: 6.00 Build 0)  -->
<svg version="1.1" id="Ebene_1" xmlns="http://www.w3.org/2000/svg" xmlns:xlink="http://www.w3.org/1999/xlink" x="0px" y="0px"
	 viewBox="0 0 205.3 205.3" style="enable-background:new 0 0 205.3 205.3;" xml:space="preserve">
<style type="text/css">
	.st0{fill:#9D9D9C;}
</style>
<g>
	<g>
		<rect x="33.2" y="85.1" class="st0" width="138.8" height="2"/>
	</g>
	<g>
		<rect x="33.2" y="117.1" class="st0" width="138.8" height="2"/>
	</g>
	<g>
		<path class="st0" d="M52.7,81.2H40.2c-2.1,0-3.8-1.7-3.8-3.8V64.9c0-2.1,1.7-3.8,3.8-3.8h12.5c2.1,0,3.8,1.7,3.8,3.8v12.6
			C56.6,79.5,54.9,81.2,52.7,81.2z M40.2,63c-1,0-1.8,0.8-1.8,1.8v12.6c0,1,0.8,1.8,1.8,1.8h12.5c1,0,1.8-0.8,1.8-1.8V64.9
			c0-1-0.8-1.8-1.8-1.8H40.2V63z"/>
	</g>
	<g>
		<path class="st0" d="M44.8,77c-0.4,0-0.8-0.2-1.1-0.5l-3.7-4c-0.6-0.6-0.5-1.6,0.1-2.1c0.6-0.6,1.6-0.5,2.1,0.1l2.6,2.8l6-6.7
			c0.6-0.6,1.5-0.7,2.1-0.1s0.7,1.5,0.1,2.1l-7,7.9C45.7,76.8,45.3,77,44.8,77C44.9,77,44.9,77,44.8,77z"/>
	</g>
	<g>
		<path class="st0" d="M52.8,112.3H40.2c-2.1,0-3.8-1.7-3.8-3.8V95.9c0-2.1,1.7-3.8,3.8-3.8h12.5c2.1,0,3.8,1.7,3.8,3.8v12.5
			C56.6,110.5,54.9,112.3,52.8,112.3z M40.2,94c-1,0-1.8,0.8-1.8,1.8v12.5c0,1,0.8,1.8,1.8,1.8h12.5c1,0,1.8-0.8,1.8-1.8V95.9
			c0-1-0.8-1.8-1.8-1.8L40.2,94L40.2,94z"/>
	</g>
	<g>
		<path class="st0" d="M44.9,108c-0.4,0-0.8-0.2-1.1-0.5l-3.7-4c-0.6-0.6-0.5-1.6,0.1-2.1c0.6-0.6,1.6-0.5,2.1,0.1l2.6,2.8l6-6.7
			c0.6-0.6,1.5-0.7,2.1-0.1s0.7,1.5,0.1,2.1l-7.1,7.9C45.7,107.9,45.3,108,44.9,108L44.9,108z"/>
	</g>
	<g>
		<path class="st0" d="M52.8,144.2H40.2c-2.1,0-3.8-1.7-3.8-3.8v-12.6c0-2.1,1.7-3.8,3.8-3.8h12.5c2.1,0,3.8,1.7,3.8,3.8v12.6
			C56.6,142.5,54.9,144.2,52.8,144.2z M40.2,126c-1,0-1.8,0.8-1.8,1.8v12.6c0,1,0.8,1.8,1.8,1.8h12.5c1,0,1.8-0.8,1.8-1.8v-12.6
			c0-1-0.8-1.8-1.8-1.8C52.7,126,40.2,126,40.2,126z"/>
	</g>
	<rect x="68.1" y="131.1" class="st0" width="103.9" height="6"/>
	<rect x="68.1" y="99.2" class="st0" width="103.9" height="6"/>
	<rect x="68.1" y="68.1" class="st0" width="103.9" height="6"/>
</g>
</svg>
