<svg id="Ebene_1" data-name="Ebene 1" xmlns="http://www.w3.org/2000/svg" viewBox="0 0 205.26 205.26"><defs><style>.cls-1,.cls-2{fill:none;stroke:#9d9d9c;}.cls-1{stroke-miterlimit:10;}.cls-2{stroke-linecap:round;stroke-linejoin:round;stroke-width:2px;}.cls-3{fill:#9d9d9c;}</style></defs><title>Zeichenfläche 2</title><line class="cls-1" x1="33.22" y1="86.63" x2="172.04" y2="86.63"/><line class="cls-1" x1="33.22" y1="118.64" x2="172.04" y2="118.64"/><rect class="cls-1" x="37.36" y="62.51" width="18.22" height="18.22" rx="2.83" ry="2.83"/><polyline class="cls-2" points="41.16 72.05 44.85 76.01 52.56 68.13"/><rect class="cls-1" x="37.37" y="93.54" width="18.22" height="18.22" rx="2.83" ry="2.83"/><polyline class="cls-2" points="41.17 103.08 44.87 107.04 52.58 99.16"/><rect class="cls-1" x="37.37" y="125.51" width="18.22" height="18.22" rx="2.83" ry="2.83"/><circle class="cls-3" cx="69.36" cy="71.62" r="1.25"/><circle class="cls-3" cx="74.19" cy="71.62" r="1.25"/><circle class="cls-3" cx="79.02" cy="71.62" r="1.25"/><circle class="cls-3" cx="83.86" cy="71.62" r="1.25"/><circle class="cls-3" cx="88.69" cy="71.62" r="1.25"/><circle class="cls-3" cx="93.52" cy="71.62" r="1.25"/><circle class="cls-3" cx="98.36" cy="71.62" r="1.25"/><circle class="cls-3" cx="103.19" cy="71.62" r="1.25"/><circle class="cls-3" cx="108.02" cy="71.62" r="1.25"/><circle class="cls-3" cx="112.86" cy="71.62" r="1.25"/><circle class="cls-3" cx="117.69" cy="71.62" r="1.25"/><circle class="cls-3" cx="122.52" cy="71.62" r="1.25"/><circle class="cls-3" cx="127.36" cy="71.62" r="1.25"/><circle class="cls-3" cx="132.19" cy="71.62" r="1.25"/><circle class="cls-3" cx="137.02" cy="71.62" r="1.25"/><circle class="cls-3" cx="141.86" cy="71.62" r="1.25"/><circle class="cls-3" cx="146.69" cy="71.62" r="1.25"/><circle class="cls-3" cx="151.52" cy="71.62" r="1.25"/><circle class="cls-3" cx="156.36" cy="71.62" r="1.25"/><circle class="cls-3" cx="161.19" cy="71.62" r="1.25"/><circle class="cls-3" cx="166.02" cy="71.62" r="1.25"/><circle class="cls-3" cx="170.86" cy="71.62" r="1.25"/><circle class="cls-3" cx="69.36" cy="102.65" r="1.25"/><circle class="cls-3" cx="74.19" cy="102.65" r="1.25"/><circle class="cls-3" cx="79.02" cy="102.65" r="1.25"/><circle class="cls-3" cx="83.86" cy="102.65" r="1.25"/><circle class="cls-3" cx="88.69" cy="102.65" r="1.25"/><circle class="cls-3" cx="93.52" cy="102.65" r="1.25"/><circle class="cls-3" cx="98.36" cy="102.65" r="1.25"/><circle class="cls-3" cx="103.19" cy="102.65" r="1.25"/><circle class="cls-3" cx="108.02" cy="102.65" r="1.25"/><circle class="cls-3" cx="112.86" cy="102.65" r="1.25"/><circle class="cls-3" cx="117.69" cy="102.65" r="1.25"/><circle class="cls-3" cx="122.52" cy="102.65" r="1.25"/><circle class="cls-3" cx="127.36" cy="102.65" r="1.25"/><circle class="cls-3" cx="132.19" cy="102.65" r="1.25"/><circle class="cls-3" cx="137.02" cy="102.65" r="1.25"/><circle class="cls-3" cx="141.86" cy="102.65" r="1.25"/><circle class="cls-3" cx="146.69" cy="102.65" r="1.25"/><circle class="cls-3" cx="151.52" cy="102.65" r="1.25"/><circle class="cls-3" cx="156.36" cy="102.65" r="1.25"/><circle class="cls-3" cx="161.19" cy="102.65" r="1.25"/><circle class="cls-3" cx="166.02" cy="102.65" r="1.25"/><circle class="cls-3" cx="170.86" cy="102.65" r="1.25"/><circle class="cls-3" cx="69.36" cy="134.62" r="1.25"/><circle class="cls-3" cx="74.19" cy="134.62" r="1.25"/><circle class="cls-3" cx="79.02" cy="134.62" r="1.25"/><circle class="cls-3" cx="83.86" cy="134.62" r="1.25"/><circle class="cls-3" cx="88.69" cy="134.62" r="1.25"/><circle class="cls-3" cx="93.52" cy="134.62" r="1.25"/><circle class="cls-3" cx="98.36" cy="134.62" r="1.25"/><circle class="cls-3" cx="103.19" cy="134.62" r="1.25"/><circle class="cls-3" cx="108.02" cy="134.62" r="1.25"/><circle class="cls-3" cx="112.86" cy="134.62" r="1.25"/><circle class="cls-3" cx="117.69" cy="134.62" r="1.25"/><circle class="cls-3" cx="122.52" cy="134.62" r="1.25"/><circle class="cls-3" cx="127.36" cy="134.62" r="1.25"/><circle class="cls-3" cx="132.19" cy="134.62" r="1.25"/><circle class="cls-3" cx="137.02" cy="134.62" r="1.25"/><circle class="cls-3" cx="141.86" cy="134.62" r="1.25"/><circle class="cls-3" cx="146.69" cy="134.62" r="1.25"/><circle class="cls-3" cx="151.52" cy="134.62" r="1.25"/><circle class="cls-3" cx="156.36" cy="134.62" r="1.25"/><circle class="cls-3" cx="161.19" cy="134.62" r="1.25"/><circle class="cls-3" cx="166.02" cy="134.62" r="1.25"/><circle class="cls-3" cx="170.86" cy="134.62" r="1.25"/></svg>