<svg xmlns="http://www.w3.org/2000/svg" viewBox="0 0 24 24">
  <path fill-rule="evenodd" fill="currentColor" d="M8.25263949,5.40603324 C8.58324602,5.7540763 8.58324602,6.30012483 8.25263949,6.64816788 C7.923889,6.97652482 7.39131267,6.97652482 7.06256218,6.64816788 C6.82952317,6.40064026 6.504644,6.26029645 6.16468607,6.26029645 C5.82472815,6.26029645 5.49984898,6.40064026 5.26680997,6.64816788 L2.56284086,9.46867626 C2.06644636,9.99556805 2.06644636,10.8179869 2.56284086,11.3448787 C3.05919882,11.8631242 3.86400781,11.8631242 4.36036578,11.3448787 L5.95934751,9.67372894 C6.01830681,9.61067496 6.11044107,9.59130224 6.18979942,9.62527269 C6.61837104,9.80766282 7.07956714,9.90095182 7.54532939,9.89946416 L7.62982843,9.89946416 C7.68718935,9.90039683 7.74182953,9.92408288 7.78172482,9.96530993 C7.82162011,10.006537 7.84350132,10.0619267 7.84255327,10.1192901 C7.84309447,10.1779356 7.82085056,10.2345013 7.78050852,10.2770684 L5.55694302,12.598241 C5.01240818,13.1737678 4.25507195,13.4998821 3.46278512,13.5 C1.82539474,13.4988181 0.498818984,12.1124966 0.500000789,10.4035274 C0.500000789,9.58449852 0.811997225,8.79915269 1.36626362,8.21945047 L4.05959649,5.40603324 C4.60437325,4.82886819 5.36247588,4.50108249 6.15611799,4.49954679 C6.72338424,4.49954679 7.27765063,4.66914367 7.75509972,4.98824581 C7.93532494,5.10761365 8.1019594,5.24825496 8.25263949,5.40603324 Z M12.6318167,1.40543786 C13.7893944,2.61448043 13.7893944,4.57341302 12.6318167,5.78245559 L9.93730207,8.59587281 C9.5634945,8.9886293 9.08814676,9.27008756 8.56404503,9.40899234 L8.54040893,9.40899234 L8.41809215,9.43558419 L8.35013838,9.44917558 L8.2041855,9.47103998 L8.13268632,9.47103998 C8.0771415,9.47103998 8.02868751,9.48226765 7.98200622,9.48463137 L7.85496222,9.49999555 L7.69423678,9.49999555 C7.58855271,9.49547297 7.48320612,9.48501674 7.37869493,9.46867626 C7.29271583,9.45374338 7.20736201,9.43541018 7.12283422,9.41371978 L6.99815382,9.37826399 C6.95219721,9.36490078 6.90685083,9.34952173 6.86224629,9.33217146 C6.81792861,9.31444356 6.77183823,9.29907938 6.72692965,9.27898777 C6.68261198,9.25889615 6.6382943,9.24116826 6.59397662,9.21930385 C6.27692952,9.06547898 5.99011429,8.85591196 5.74721357,8.60060025 C5.41600232,8.25097189 5.41600232,7.70336653 5.74721357,7.35373817 C6.07576139,7.02544899 6.60815216,7.02544899 6.93669998,7.35373817 C7.16953039,7.60120246 7.49421635,7.7415243 7.83398518,7.7415243 C8.17375402,7.7415243 8.49843998,7.60120246 8.73127039,7.35373817 L9.42558064,6.6328037 L9.44271681,6.61330302 L11.4281487,4.54209374 C11.9239157,4.02384822 11.9239157,3.18413684 11.4281487,2.66589133 C11.1951659,2.41782311 10.8699948,2.27711982 10.5296817,2.27711982 C10.1893685,2.27711982 9.86419738,2.41782311 9.63121465,2.66589133 L8.03755104,4.32817712 C7.97859175,4.39123109 7.88645748,4.41060382 7.80709913,4.37663337 C7.37950835,4.19349323 6.91908929,4.09939446 6.45393277,4.10007818 L6.37593366,4.10007818 C6.28800628,4.10092094 6.20872594,4.0472807 6.17679957,3.96534616 C6.1426994,3.88269921 6.16002522,3.78774928 6.22111725,3.72247398 L8.44172824,1.40602879 C8.98516234,0.827881226 9.74333436,0.5 10.5367725,0.5 C11.3302106,0.5 12.0883826,0.827881226 12.6318167,1.40602879 L12.6318167,1.40543786 Z" transform="translate(5 5)"/>
</svg>