<svg xmlns="http://www.w3.org/2000/svg" width="96" height="33" viewBox="0 0 96 33">
    <path fill-rule="evenodd" d="M96,26.9065044 L96,33 L0,33 L0,26.9065044 L96,26.9065044 Z M43.825801,0.295704855 L47.4277156,0.298848262 L47.4126802,18.0430696 C47.411114,19.6861287 48.1312464,20.2780324 49.2770681,20.2789754 C50.423203,20.2802327 51.1442751,19.6889578 51.145528,18.046213 L51.145528,18.046213 L51.1605634,0.30199167 L54.5660784,0.304820737 L54.551043,17.819259 C54.5479106,21.4992462 52.7126538,23.6009285 49.1762057,23.5977886 C45.6397576,23.5946417 43.8079464,21.4901303 43.8110748,17.8101431 L43.8110748,17.8101431 L43.825801,0.295704855 Z M5.3849235,2.25075829e-06 C8.92168482,0.00314791311 10.753496,2.10765927 10.7503677,5.78796084 L10.7503677,5.78796084 L10.7484842,8.02229494 L7.34296929,8.01946587 L7.34516195,5.55503434 C7.3464149,3.91228955 6.6265958,3.28706579 5.48046085,3.28612277 C4.3343259,3.28549409 3.61356709,3.9088318 3.61231414,5.55189094 L3.61231414,5.55189094 L3.60166407,17.9727516 C3.60041112,19.6158107 4.32023023,20.2077143 5.46636518,20.2089717 C6.61218689,20.2099147 7.33325894,19.6189541 7.33451189,17.9762093 L7.33451189,17.9762093 L7.33733102,14.690091 L10.7425327,14.6932345 L10.7400268,17.7489409 C10.7368944,21.4292425 8.90163764,23.5306105 5.36518956,23.5277843 C1.82874147,23.524638 -0.00306972464,21.4201266 5.86369834e-05,17.7398251 L5.86369834e-05,17.7398251 L0.0100862381,5.77884496 C0.0132186102,2.09854339 1.84878865,-0.00251022049 5.3849235,2.25075829e-06 Z M87.0802259,0.332482723 L92.3520081,0.337197834 L95.9996554,23.3419117 L92.3651641,23.3390826 L91.7462074,19.1649517 L87.3261171,19.161494 L86.7005824,23.3340532 L83.3931107,23.3312241 L87.0802259,0.332482723 Z M71.0028563,0.319217543 L76.7006412,0.323932654 C80.3022426,0.327076062 82.0685872,2.33288443 82.0657714,6.01350034 L82.0657714,6.01350034 L82.0557445,17.64568 C82.0526121,21.3259816 80.2828219,23.3286465 76.6812205,23.3255068 L76.6812205,23.3255068 L70.9834356,23.3204737 L71.0028563,0.319217543 Z M56.9887802,0.306958254 L61.5075402,0.310730343 L65.1959083,14.0823132 L65.2074981,0.314188091 L68.4166133,0.316702817 L68.3971926,23.3182733 L64.6969215,23.3154442 L60.2251471,6.65161207 L60.2110514,23.3116721 L56.9693595,23.3088431 L56.9887802,0.306958254 Z M26.2424495,0.280836537 L31.2523654,0.284922967 L33.8907624,16.618383 L36.3603246,0.289323737 L41.3702405,0.293724508 L41.3508198,23.295295 L37.9456181,23.2927803 L37.9594005,6.79680606 L35.4569485,23.2905799 L32.0514335,23.2877508 L29.3801466,7.01967366 L29.3666774,23.2852361 L26.2230288,23.282407 L26.2424495,0.280836537 Z M15.6661205,0.271689221 L20.9379027,0.276089991 L24.5858632,23.2811182 L20.9510586,23.2782891 L20.3327284,19.1041582 L15.9123249,19.1007005 L15.286477,23.2732597 L11.9793185,23.2704306 L15.6661205,0.271689221 Z M74.6019519,3.60816487 L74.5881694,20.0378132 L76.6182598,20.0397003 C77.7643947,20.0406422 78.4522636,19.4496816 78.4538298,17.8066225 L78.4538298,17.8066225 L78.4638551,5.84595671 C78.4651064,4.20289758 77.7781772,3.6106796 76.6320422,3.60973658 L76.6320422,3.60973658 L74.6019519,3.60816487 Z M89.53256,4.40916799 L87.7872023,16.0404046 L91.2581838,16.0432337 L89.53256,4.40916799 Z M18.1184546,4.34837448 L16.3730968,15.9792968 L19.8440783,15.9824402 L18.1184546,4.34837448 Z"/>
</svg>